<?xml version="1.0" encoding="utf-8"?>

<!DOCTYPE svg PUBLIC "-//W3C//DTD SVG 1.1//EN" "http://www.w3.org/Graphics/SVG/1.1/DTD/svg11.dtd">
<svg version="1.1" id="Layer_1" xmlns="http://www.w3.org/2000/svg" xmlns:xlink="http://www.w3.org/1999/xlink" x="0px" y="0px"
	 viewBox="0 0 1601.7983 1677.2841" enable-background="new 0 0 1601.7983 1677.2841" xml:space="preserve">
<g>
	<path fill="#DE2910" d="M998.9066,44.0386c97.671,25.0929,142.5565,112.74,144.8177,208.3549
		c2.4008,101.5226-42.423,181.5703-84.9974,270.3522c-18.3953,38.3624-38.4617,82.6351-36.4874,126.1899
		c0.5629,12.4173,0.8021,27.5059,15.9453,27.7416c21.3677,0.3325,42.8927-1.7055,64.2571-2.1543
		c105.4615-2.2156,216.7527-7.4658,321.2894,9.0449c46.2777,7.309,75.0675,33.5325,101.687,70.6094
		c25.4524,35.451,55.4069,84.1544,27.8129,125.7041c-11.7474,17.6886-27.8345,33.408-36.8781,52.7802
		c-9.9307,21.2723,4.0498,42.7998,14.7614,60.7313c10.6559,17.8381,23.2321,35.2729,30.8196,54.7414
		c10.0995,25.9143-7.5839,45.8466-23.7017,64.3829c-13.2639,15.2542-31.2997,31.2736-38.4131,50.683
		c-7.5275,20.5392,5.0192,45.1085,12.7223,63.7157c8.2715,19.9799,20.1232,42.4889,18.2291,64.7592
		c-2.1757,25.5833-21.3267,46.3729-38.6438,63.5941c-33.0865,32.9031-52.6344,50.3795-52.2271,98.9523
		c0.1984,23.6605,2.5238,45.3129-10.5719,66.2902c-13.2948,21.2964-32.6989,39.9739-51.7035,56.1561
		c-78.3295,66.6974-184.5875,62.6145-282.2679,61.5192c-106.7551-1.1971-212.765-9.3143-319.2121-15.8542
		c-44.7909-2.752-89.8874-14.9807-133.9435-23.2894c-52.046-9.8154-104.1722-19.2312-156.2683-28.7777
		c-18.122-3.3209-44.2641-3.4432-60.7308-11.7754c-9.1323-4.621-2.8459-54.1907-2.8422-63.1838
		c0.024-57.7537,0.0401-115.5072,0.051-173.2607c0.0208-111.0646,0.0221-222.1292,0.0225-333.1937
		c0.0001-25.0562,0.0002-50.1123,0.0003-75.1685c0-18.7928,20.1878-10.8993,34.7056-11.6467
		c45.8423-2.36,82.6358-49.1166,106.7693-83.4789c59.5038-84.7241,96.6716-180.4609,137.7215-274.7197
		c17.5887-40.387,51.4119-69.1886,85.0817-96.0224c39.3406-31.3531,69.293-65.938,88.8964-112.718
		c26.8231-64.0087,35.7424-132.4451,43.6278-200.8727c2.6257-22.7854-4.1426-73.6786,17.1988-88.3322
		C954.4381,33.5308,979.4545,39.8193,998.9066,44.0386C1005.0576,45.6188,968.9697,37.5451,998.9066,44.0386z M357.4478,1534.5015
		v-596c0-40.3168-32.6832-73-73-73H109.903c-40.3168,0-73,32.6832-73,73v596c0,40.3168,32.6832,73,73,73h174.5448
		C324.7645,1607.5015,357.4478,1574.8182,357.4478,1534.5015z"/>
	<g>
		<polygon fill="#FFDE00" points="782.6461,1060.3677 729.2352,895.9857 675.8243,1060.3677 502.9826,1060.3677 642.8145,1161.9614 
			589.4036,1326.3433 729.2352,1224.7496 869.0668,1326.3433 815.6559,1161.9614 955.4879,1060.3677 		"/>
		<polygon fill="#FFDE00" points="1113.8755,923.8597 1143.5176,973.2631 1148.5754,915.8718 1204.7211,902.9468 1151.701,880.4018 
			1156.7589,823.0105 1118.9336,866.4683 1065.9136,843.9232 1095.5557,893.3267 1057.7301,936.7845 		"/>
		<polygon fill="#FFDE00" points="1262.5848,1075.6731 1270.7329,1132.7078 1297.6653,1081.7766 1354.4263,1091.6523 
			1314.3103,1050.2993 1341.243,999.368 1289.5172,1024.7418 1249.4014,983.3889 1257.5493,1040.4236 1205.824,1065.7974 		"/>
		<polygon fill="#FFDE00" points="1358.8158,1265.286 1301.2391,1267.3516 1281.4825,1213.2311 1265.6548,1268.6282 
			1208.0781,1270.6937 1255.8728,1302.8654 1240.045,1358.2625 1285.4116,1322.7487 1333.2064,1354.9203 1313.4495,1300.7998 		"/>
		<polygon fill="#FFDE00" points="1153.7061,1376.877 1117.7152,1421.8658 1063.8066,1401.5386 1095.4716,1449.6705 
			1059.4802,1494.6593 1115.0416,1479.4176 1146.7068,1527.5493 1149.3805,1469.9977 1204.9418,1454.7559 1151.0325,1434.4287 		"/>
	</g>
</g>
</svg>
